<svg width="41" height="42" viewBox="0 0 41 42" fill="none" xmlns="http://www.w3.org/2000/svg">
<path d="M41 21C41 32.3218 31.8218 41.5 20.5 41.5C9.17816 41.5 0 32.3218 0 21C0 9.67816 9.17816 0.5 20.5 0.5C31.8218 0.5 41 9.67816 41 21Z" fill="#383941"/>
<path d="M13.9362 28.4789V18.9522H13.8979L8.33509 28.4789H5.34783V14.4043H8.17233V23.9885H8.21062L13.783 14.4043H16.7607V28.4789H13.9362Z" fill="white"/>
<path d="M19.8269 25.8437C20.229 25.8437 20.6783 25.6348 20.8565 25.4565C20.8565 25.4565 21.1641 25.3129 21.2535 24.9555L16.2651 14.4043H19.5779L22.7758 21.9682L25.5812 14.4043H28.7408L24.2503 24.7927C23.6631 26.1651 23.0407 26.8267 22.3833 27.4905C21.7258 28.1479 20.9918 28.4767 20.1811 28.4767C19.9258 28.4767 19.7024 28.4639 19.5109 28.4384C19.3258 28.4128 19.163 28.3809 19.0226 28.3426C18.8886 28.3043 18.7673 28.266 18.6588 28.2277C18.5566 28.1894 18.4577 28.1543 18.362 28.1224V25.4511C18.5471 25.5724 18.7609 25.6681 19.0034 25.7383C19.246 25.8086 19.5205 25.8437 19.8269 25.8437Z" fill="white"/>
<path d="M31.8061 21.2118C31.4742 21.2118 31.187 21.2533 30.9444 21.3363C30.5167 21.4895 30.1944 21.7736 29.9774 22.1884L27.5263 22.0736L28.5029 14.4043H36.153V16.7214H30.4752L29.9774 19.7565C30.3987 19.482 30.7274 19.3001 30.9636 19.2108C31.3593 19.0639 31.8412 18.9905 32.4093 18.9905C33.5583 18.9905 34.5604 19.3767 35.4157 20.1491C36.271 20.9214 36.6987 22.0448 36.6987 23.5193C36.6987 24.8023 36.287 25.9481 35.4636 26.9566C34.6402 27.9651 33.4083 28.4694 31.7678 28.4694C30.4465 28.4694 29.3614 28.1151 28.5125 27.4066C27.6635 26.6981 27.1912 25.6927 27.0954 24.3906H29.8146C29.9231 24.9842 30.1306 25.4438 30.437 25.7693C30.7433 26.0885 31.1901 26.2481 31.7774 26.2481C32.454 26.2481 32.9678 26.0119 33.3189 25.5395C33.6763 25.0608 33.8551 24.4608 33.8551 23.7395C33.8551 23.031 33.6891 22.4342 33.3572 21.9491C33.0253 21.4576 32.5082 21.2118 31.8061 21.2118Z" fill="#61BCC0"/>
</svg>
