<svg width="1280" height="349" viewBox="0 0 1280 349" fill="none" xmlns="http://www.w3.org/2000/svg">
<path d="M0 0H1280V349H929.941H620.351H616.582H306.991H0V0Z" fill="#E7F3F5"/>
<path fill-rule="evenodd" clip-rule="evenodd" d="M616.582 187.971C615.024 149.879 587.609 75.0959 490.409 80.693H365.405C349.438 77.9722 315.403 63.4354 306.991 27.0543V349H616.582V187.971Z" fill="white"/>
<path fill-rule="evenodd" clip-rule="evenodd" d="M620.351 187.971C621.908 149.879 649.324 75.0959 746.523 80.693H871.528C887.494 77.9722 921.529 63.4354 929.941 27.0543V349H620.351V187.971Z" fill="white"/>
<path fill-rule="evenodd" clip-rule="evenodd" d="M190.153 113.35H413.424V231.083H190.153V113.35ZM194.887 118.066V137.742H234.641V118.066H194.887ZM239.375 118.066V137.742H282.251V118.066H239.375ZM286.985 118.066V137.742H345.471V118.066H286.985ZM350.204 118.066V137.742H408.69V118.066H350.204ZM408.69 142.458H350.204V162.947H408.69V142.458ZM408.69 167.663H350.204V194.657H408.69V167.663ZM408.69 199.373H350.204V226.367H408.69V199.373ZM345.471 226.367V199.373H286.985V226.367H345.471ZM282.251 226.367V199.373H239.375V226.367H282.251ZM234.641 226.367V199.373H194.887V226.367H234.641ZM194.887 194.657H234.641V167.663H194.887V194.657ZM194.887 162.947H234.641V142.458H194.887V162.947ZM239.375 142.458V162.947H282.251V142.458H239.375ZM286.985 142.458V162.947H345.471V142.458H286.985ZM345.471 167.663H286.985V194.657H345.471V167.663ZM282.251 194.657V167.663H239.375V194.657H282.251Z" fill="#FF8A35"/>
<path d="M783.287 180.186H823.035V311.352H783.287V180.186Z" fill="#FF8A35"/>
<path d="M959.313 180.186H999.061V311.352H959.313V180.186Z" fill="#EC6442"/>
<path d="M841.962 233.045H881.71V311.352H841.962V233.045Z" fill="#FF9E58"/>
<path d="M900.639 205.637H940.387V311.352H900.639V205.637Z" fill="#FF9276"/>
<path d="M749.068 168.462L752.47 171.741L755.976 168.132V312.411H758.682V313.71H1044.6L1040.89 317.547L1044.3 320.819L1053.45 311.352L1044.3 301.885L1040.89 305.157L1044.6 308.994H760.71V168.132L764.216 171.741L767.618 168.462L758.343 158.913L749.068 168.462Z" fill="#EC6442"/>
<path d="M360.702 284.734L371.458 289.141L370.67 291.465L357.582 285.942V283.527L370.67 278.003L371.458 280.328L360.702 284.734Z" fill="#929292"/>
<path d="M375.228 299.343H372.35L382.62 270.126H385.438L375.228 299.343Z" fill="#929292"/>
<path d="M392.46 291.737C393.126 291.737 393.712 291.727 394.217 291.707C394.742 291.667 395.176 291.606 395.52 291.526V286.847C395.318 286.747 394.985 286.666 394.52 286.606C394.076 286.525 393.53 286.485 392.884 286.485C392.46 286.485 392.005 286.515 391.521 286.576C391.056 286.636 390.622 286.767 390.218 286.968C389.834 287.149 389.511 287.411 389.249 287.753C388.986 288.075 388.855 288.507 388.855 289.051C388.855 290.057 389.178 290.761 389.824 291.164C390.47 291.546 391.349 291.737 392.46 291.737ZM392.218 277.671C393.349 277.671 394.298 277.822 395.065 278.124C395.853 278.406 396.479 278.818 396.944 279.362C397.428 279.885 397.772 280.519 397.974 281.263C398.176 281.988 398.277 282.793 398.277 283.678V293.488C398.034 293.528 397.691 293.588 397.247 293.669C396.823 293.729 396.338 293.79 395.792 293.85C395.247 293.91 394.651 293.961 394.005 294.001C393.379 294.061 392.753 294.091 392.127 294.091C391.238 294.091 390.42 294.001 389.673 293.82C388.925 293.639 388.279 293.357 387.734 292.975C387.188 292.572 386.764 292.049 386.461 291.405C386.158 290.761 386.007 289.986 386.007 289.081C386.007 288.216 386.179 287.471 386.522 286.847C386.885 286.224 387.37 285.72 387.976 285.338C388.582 284.956 389.289 284.674 390.097 284.493C390.905 284.312 391.753 284.221 392.642 284.221C392.924 284.221 393.217 284.241 393.52 284.282C393.823 284.302 394.106 284.342 394.369 284.402C394.651 284.443 394.894 284.483 395.096 284.523C395.298 284.563 395.439 284.594 395.52 284.614V283.829C395.52 283.366 395.469 282.913 395.368 282.471C395.267 282.008 395.086 281.605 394.823 281.263C394.56 280.901 394.197 280.619 393.732 280.418C393.288 280.197 392.702 280.086 391.975 280.086C391.046 280.086 390.228 280.157 389.521 280.297C388.835 280.418 388.319 280.549 387.976 280.69L387.643 278.366C388.006 278.205 388.612 278.054 389.461 277.913C390.309 277.752 391.228 277.671 392.218 277.671Z" fill="#929292"/>
<path d="M402.138 280.328L402.926 278.003L416.014 283.527V285.942L402.926 291.465L402.138 289.141L412.893 284.734L402.138 280.328Z" fill="#929292"/>
<path d="M292.537 284.734L303.292 289.141L302.504 291.465L289.416 285.942V283.527L302.504 278.003L303.292 280.328L292.537 284.734Z" fill="#929292"/>
<path d="M312.667 291.737C313.333 291.737 313.919 291.727 314.424 291.707C314.949 291.667 315.384 291.606 315.727 291.526V286.847C315.525 286.747 315.192 286.666 314.727 286.606C314.283 286.525 313.737 286.485 313.091 286.485C312.667 286.485 312.213 286.515 311.728 286.576C311.263 286.636 310.829 286.767 310.425 286.968C310.041 287.149 309.718 287.411 309.456 287.753C309.193 288.075 309.062 288.507 309.062 289.051C309.062 290.057 309.385 290.761 310.031 291.164C310.678 291.546 311.556 291.737 312.667 291.737ZM312.425 277.671C313.556 277.671 314.505 277.822 315.272 278.124C316.06 278.406 316.686 278.818 317.151 279.362C317.636 279.885 317.979 280.519 318.181 281.263C318.383 281.988 318.484 282.793 318.484 283.678V293.488C318.241 293.528 317.898 293.588 317.454 293.669C317.03 293.729 316.545 293.79 316 293.85C315.454 293.91 314.858 293.961 314.212 294.001C313.586 294.061 312.96 294.091 312.334 294.091C311.445 294.091 310.627 294.001 309.88 293.82C309.132 293.639 308.486 293.357 307.941 292.975C307.396 292.572 306.971 292.049 306.668 291.405C306.365 290.761 306.214 289.986 306.214 289.081C306.214 288.216 306.386 287.471 306.729 286.847C307.093 286.224 307.577 285.72 308.183 285.338C308.789 284.956 309.496 284.674 310.304 284.493C311.112 284.312 311.96 284.221 312.849 284.221C313.132 284.221 313.424 284.241 313.727 284.282C314.03 284.302 314.313 284.342 314.576 284.402C314.858 284.443 315.101 284.483 315.303 284.523C315.505 284.563 315.646 284.594 315.727 284.614V283.829C315.727 283.366 315.676 282.913 315.575 282.471C315.474 282.008 315.293 281.605 315.03 281.263C314.768 280.901 314.404 280.619 313.939 280.418C313.495 280.197 312.909 280.086 312.182 280.086C311.253 280.086 310.435 280.157 309.728 280.297C309.042 280.418 308.527 280.549 308.183 280.69L307.85 278.366C308.214 278.205 308.819 278.054 309.668 277.913C310.516 277.752 311.435 277.671 312.425 277.671Z" fill="#929292"/>
<path d="M322.345 280.328L323.133 278.003L336.221 283.527V285.942L323.133 291.465L322.345 289.141L333.1 284.734L322.345 280.328Z" fill="#929292"/>
<path d="M454.945 127.712C455.289 127.491 455.804 127.26 456.49 127.018C457.197 126.777 458.005 126.656 458.914 126.656C460.045 126.656 461.045 126.857 461.913 127.26C462.802 127.662 463.549 128.226 464.155 128.95C464.761 129.674 465.216 130.54 465.519 131.546C465.842 132.552 466.003 133.659 466.003 134.866C466.003 136.134 465.811 137.281 465.428 138.307C465.064 139.313 464.539 140.168 463.852 140.873C463.166 141.577 462.338 142.12 461.368 142.502C460.399 142.885 459.308 143.076 458.096 143.076C456.783 143.076 455.622 142.985 454.612 142.804C453.602 142.623 452.774 142.442 452.128 142.261V119.774L454.945 119.291V127.712ZM454.945 140.269C455.228 140.349 455.622 140.43 456.127 140.51C456.652 140.571 457.298 140.601 458.066 140.601C459.581 140.601 460.792 140.108 461.701 139.122C462.61 138.116 463.065 136.697 463.065 134.866C463.065 134.061 462.984 133.306 462.822 132.602C462.661 131.898 462.398 131.294 462.035 130.791C461.671 130.268 461.196 129.865 460.611 129.584C460.045 129.282 459.358 129.131 458.551 129.131C457.783 129.131 457.076 129.262 456.43 129.523C455.784 129.785 455.289 130.057 454.945 130.338V140.269Z" fill="#929292"/>
<path d="M469.089 134.896C469.089 133.508 469.291 132.3 469.695 131.274C470.099 130.228 470.635 129.362 471.301 128.678C471.968 127.994 472.735 127.481 473.604 127.139C474.472 126.797 475.361 126.626 476.27 126.626C478.39 126.626 480.016 127.29 481.147 128.618C482.278 129.926 482.844 131.928 482.844 134.624C482.844 134.745 482.844 134.906 482.844 135.107C482.844 135.289 482.834 135.46 482.813 135.621H472.028C472.149 137.25 472.624 138.488 473.452 139.333C474.28 140.178 475.573 140.601 477.33 140.601C478.32 140.601 479.148 140.52 479.814 140.359C480.501 140.178 481.016 140.007 481.359 139.846L481.753 142.201C481.41 142.382 480.804 142.573 479.935 142.774C479.087 142.975 478.118 143.076 477.027 143.076C475.654 143.076 474.462 142.875 473.452 142.472C472.462 142.05 471.644 141.476 470.998 140.752C470.352 140.027 469.867 139.172 469.544 138.186C469.241 137.18 469.089 136.083 469.089 134.896ZM479.905 133.357C479.925 132.089 479.602 131.053 478.936 130.248C478.289 129.423 477.391 129.01 476.239 129.01C475.593 129.01 475.017 129.141 474.512 129.403C474.028 129.644 473.614 129.966 473.27 130.369C472.927 130.771 472.654 131.234 472.452 131.757C472.271 132.28 472.149 132.813 472.089 133.357H479.905Z" fill="#929292"/>
<path d="M496.768 141.144C496.525 141.305 496.051 141.516 495.344 141.778C494.657 142.019 493.849 142.14 492.92 142.14C491.971 142.14 491.072 141.989 490.224 141.687C489.396 141.386 488.668 140.923 488.042 140.299C487.416 139.655 486.921 138.86 486.558 137.914C486.194 136.969 486.013 135.842 486.013 134.534C486.013 133.387 486.184 132.341 486.528 131.395C486.871 130.429 487.366 129.604 488.012 128.92C488.679 128.215 489.486 127.672 490.436 127.29C491.385 126.887 492.455 126.686 493.647 126.686C494.96 126.686 496.101 126.787 497.071 126.988C498.06 127.169 498.888 127.34 499.555 127.501V141.506C499.555 143.921 498.929 145.672 497.676 146.758C496.424 147.845 494.526 148.388 491.981 148.388C490.991 148.388 490.052 148.308 489.163 148.147C488.295 147.986 487.537 147.795 486.891 147.573L487.406 145.128C487.972 145.35 488.658 145.541 489.466 145.702C490.294 145.883 491.153 145.974 492.041 145.974C493.718 145.974 494.92 145.642 495.647 144.977C496.394 144.313 496.768 143.257 496.768 141.808V141.144ZM496.737 129.493C496.455 129.413 496.071 129.342 495.586 129.282C495.122 129.201 494.485 129.161 493.677 129.161C492.163 129.161 490.991 129.654 490.163 130.64C489.355 131.626 488.951 132.934 488.951 134.564C488.951 135.47 489.062 136.244 489.285 136.888C489.527 137.532 489.84 138.065 490.224 138.488C490.628 138.911 491.082 139.222 491.587 139.424C492.112 139.625 492.647 139.726 493.193 139.726C493.94 139.726 494.627 139.625 495.253 139.424C495.879 139.202 496.374 138.951 496.737 138.669V129.493Z" fill="#929292"/>
<path d="M507.223 142.714H504.406V127.018H507.223V142.714ZM505.8 124.181C505.295 124.181 504.86 124.02 504.497 123.698C504.153 123.356 503.982 122.903 503.982 122.34C503.982 121.776 504.153 121.334 504.497 121.012C504.86 120.669 505.295 120.498 505.8 120.498C506.304 120.498 506.729 120.669 507.072 121.012C507.435 121.334 507.617 121.776 507.617 122.34C507.617 122.903 507.435 123.356 507.072 123.698C506.729 124.02 506.304 124.181 505.8 124.181Z" fill="#929292"/>
<path d="M512.069 127.471C512.715 127.31 513.573 127.139 514.644 126.958C515.714 126.777 516.946 126.686 518.34 126.686C519.592 126.686 520.632 126.867 521.46 127.229C522.288 127.572 522.945 128.065 523.43 128.708C523.935 129.332 524.288 130.087 524.49 130.972C524.692 131.858 524.793 132.834 524.793 133.9V142.714H521.975V134.504C521.975 133.538 521.905 132.713 521.763 132.029C521.642 131.344 521.43 130.791 521.127 130.369C520.824 129.946 520.42 129.644 519.915 129.463C519.41 129.262 518.784 129.161 518.037 129.161C517.734 129.161 517.421 129.171 517.098 129.191C516.775 129.212 516.462 129.242 516.159 129.282C515.876 129.302 515.613 129.332 515.371 129.372C515.149 129.413 514.987 129.443 514.886 129.463V142.714H512.069V127.471Z" fill="#929292"/>
<path d="M1097.41 206.212L1108.16 210.618L1107.38 212.943L1094.29 207.419V205.004L1107.38 199.481L1108.16 201.805L1097.41 206.212Z" fill="#929292"/>
<path d="M1117.54 213.214C1118.21 213.214 1118.79 213.204 1119.3 213.184C1119.82 213.144 1120.26 213.083 1120.6 213.003V208.325C1120.4 208.224 1120.06 208.143 1119.6 208.083C1119.16 208.003 1118.61 207.962 1117.96 207.962C1117.54 207.962 1117.09 207.992 1116.6 208.053C1116.14 208.113 1115.7 208.244 1115.3 208.445C1114.91 208.626 1114.59 208.888 1114.33 209.23C1114.07 209.552 1113.93 209.985 1113.93 210.528C1113.93 211.534 1114.26 212.238 1114.9 212.641C1115.55 213.023 1116.43 213.214 1117.54 213.214ZM1117.3 199.149C1118.43 199.149 1119.38 199.3 1120.14 199.601C1120.93 199.883 1121.56 200.296 1122.02 200.839C1122.51 201.362 1122.85 201.996 1123.05 202.741C1123.26 203.465 1123.36 204.27 1123.36 205.155V214.965C1123.11 215.005 1122.77 215.066 1122.33 215.146C1121.9 215.206 1121.42 215.267 1120.87 215.327C1120.33 215.388 1119.73 215.438 1119.08 215.478C1118.46 215.538 1117.83 215.569 1117.21 215.569C1116.32 215.569 1115.5 215.478 1114.75 215.297C1114 215.116 1113.36 214.834 1112.81 214.452C1112.27 214.049 1111.84 213.526 1111.54 212.882C1111.24 212.238 1111.09 211.464 1111.09 210.558C1111.09 209.693 1111.26 208.948 1111.6 208.325C1111.96 207.701 1112.45 207.198 1113.06 206.815C1113.66 206.433 1114.37 206.151 1115.18 205.97C1115.98 205.789 1116.83 205.699 1117.72 205.699C1118 205.699 1118.3 205.719 1118.6 205.759C1118.9 205.779 1119.19 205.819 1119.45 205.88C1119.73 205.92 1119.97 205.96 1120.18 206C1120.38 206.041 1120.52 206.071 1120.6 206.091V205.306C1120.6 204.843 1120.55 204.391 1120.45 203.948C1120.35 203.485 1120.17 203.083 1119.9 202.741C1119.64 202.378 1119.28 202.097 1118.81 201.895C1118.37 201.674 1117.78 201.563 1117.05 201.563C1116.13 201.563 1115.31 201.634 1114.6 201.775C1113.91 201.895 1113.4 202.026 1113.06 202.167L1112.72 199.843C1113.09 199.682 1113.69 199.531 1114.54 199.39C1115.39 199.229 1116.31 199.149 1117.3 199.149Z" fill="#929292"/>
<path d="M1135.05 215.237V192.297L1137.87 191.814V199.843C1138.39 199.642 1138.95 199.491 1139.53 199.39C1140.14 199.269 1140.73 199.209 1141.32 199.209C1142.57 199.209 1143.61 199.39 1144.44 199.752C1145.27 200.094 1145.92 200.587 1146.41 201.231C1146.91 201.855 1147.27 202.61 1147.47 203.495C1147.67 204.38 1147.77 205.356 1147.77 206.423V215.237H1144.95V207.027C1144.95 206.061 1144.88 205.236 1144.74 204.552C1144.62 203.867 1144.41 203.314 1144.11 202.891C1143.8 202.469 1143.4 202.167 1142.89 201.986C1142.39 201.785 1141.76 201.684 1141.02 201.684C1140.71 201.684 1140.4 201.704 1140.08 201.744C1139.75 201.785 1139.44 201.835 1139.14 201.895C1138.85 201.936 1138.59 201.986 1138.35 202.046C1138.13 202.107 1137.97 202.157 1137.87 202.197V215.237H1135.05Z" fill="#929292"/>
<path d="M1158.17 199.209C1158.41 199.209 1158.69 199.229 1158.99 199.269C1159.31 199.29 1159.63 199.33 1159.93 199.39C1160.23 199.43 1160.5 199.481 1160.75 199.541C1161.01 199.581 1161.2 199.622 1161.32 199.662L1160.84 202.107C1160.62 202.026 1160.24 201.936 1159.72 201.835C1159.21 201.714 1158.56 201.654 1157.75 201.654C1157.22 201.654 1156.7 201.714 1156.17 201.835C1155.67 201.936 1155.33 202.006 1155.17 202.046V215.237H1152.36V200.205C1153.02 199.964 1153.85 199.742 1154.84 199.541C1155.83 199.32 1156.94 199.209 1158.17 199.209Z" fill="#929292"/>
<path d="M1163.16 207.419C1163.16 206.031 1163.37 204.823 1163.77 203.797C1164.17 202.751 1164.71 201.885 1165.37 201.201C1166.04 200.517 1166.81 200.004 1167.68 199.662C1168.55 199.32 1169.43 199.149 1170.34 199.149C1172.46 199.149 1174.09 199.813 1175.22 201.141C1176.35 202.449 1176.92 204.451 1176.92 207.147C1176.92 207.268 1176.92 207.429 1176.92 207.63C1176.92 207.811 1176.91 207.982 1176.89 208.143H1166.1C1166.22 209.773 1166.7 211.011 1167.53 211.856C1168.35 212.701 1169.65 213.124 1171.4 213.124C1172.39 213.124 1173.22 213.043 1173.89 212.882C1174.57 212.701 1175.09 212.53 1175.43 212.369L1175.83 214.723C1175.48 214.905 1174.88 215.096 1174.01 215.297C1173.16 215.498 1172.19 215.599 1171.1 215.599C1169.73 215.599 1168.54 215.398 1167.53 214.995C1166.54 214.573 1165.72 213.999 1165.07 213.275C1164.43 212.55 1163.94 211.695 1163.62 210.709C1163.31 209.703 1163.16 208.606 1163.16 207.419ZM1173.98 205.88C1174 204.612 1173.68 203.576 1173.01 202.771C1172.36 201.946 1171.46 201.533 1170.31 201.533C1169.67 201.533 1169.09 201.664 1168.59 201.926C1168.1 202.167 1167.69 202.489 1167.34 202.891C1167 203.294 1166.73 203.757 1166.53 204.28C1166.34 204.803 1166.22 205.336 1166.16 205.88H1173.98Z" fill="#929292"/>
<path d="M1187.11 191.814C1187.94 191.814 1188.65 191.874 1189.24 191.995C1189.84 192.116 1190.27 192.226 1190.51 192.327L1189.99 194.742C1189.75 194.621 1189.41 194.51 1188.96 194.41C1188.52 194.289 1187.97 194.229 1187.33 194.229C1186.01 194.229 1185.1 194.591 1184.57 195.315C1184.04 196.02 1183.78 196.975 1183.78 198.183V199.541H1189.84V201.895H1183.78V215.237H1180.96V198.122C1180.96 196.11 1181.46 194.561 1182.45 193.474C1183.44 192.367 1184.99 191.814 1187.11 191.814Z" fill="#929292"/>
<path d="M1191.83 208.234H1205.71V210.618H1191.83V208.234ZM1191.83 201.805H1205.71V204.189H1191.83V201.805Z" fill="#929292"/>
<path d="M1213.08 213.607C1213.08 214.15 1212.9 214.623 1212.54 215.025C1212.18 215.428 1211.68 215.629 1211.05 215.629C1210.43 215.629 1209.93 215.428 1209.57 215.025C1209.21 214.623 1209.02 214.15 1209.02 213.607C1209.02 213.063 1209.21 212.59 1209.57 212.188C1209.93 211.786 1210.43 211.584 1211.05 211.584C1211.68 211.584 1212.18 211.786 1212.54 212.188C1212.9 212.59 1213.08 213.063 1213.08 213.607Z" fill="#929292"/>
<path d="M1220.54 213.607C1220.54 214.15 1220.36 214.623 1219.99 215.025C1219.63 215.428 1219.14 215.629 1218.51 215.629C1217.88 215.629 1217.39 215.428 1217.03 215.025C1216.66 214.623 1216.48 214.15 1216.48 213.607C1216.48 213.063 1216.66 212.59 1217.03 212.188C1217.39 211.786 1217.88 211.584 1218.51 211.584C1219.14 211.584 1219.63 211.786 1219.99 212.188C1220.36 212.59 1220.54 213.063 1220.54 213.607Z" fill="#929292"/>
<path d="M1228 213.607C1228 214.15 1227.81 214.623 1227.45 215.025C1227.09 215.428 1226.59 215.629 1225.97 215.629C1225.34 215.629 1224.84 215.428 1224.48 215.025C1224.12 214.623 1223.94 214.15 1223.94 213.607C1223.94 213.063 1224.12 212.59 1224.48 212.188C1224.84 211.786 1225.34 211.584 1225.97 211.584C1226.59 211.584 1227.09 211.786 1227.45 212.188C1227.81 212.59 1228 213.063 1228 213.607Z" fill="#929292"/>
<path fill-rule="evenodd" clip-rule="evenodd" d="M1099.7 78.3683H1120.42V99.7042H1115.68V83.0845H1099.7V78.3683ZM1035.68 78.3683H1056.4V83.0845H1040.42V99.7042H1035.68V78.3683ZM1059.68 110.848V101.412H1064.42V110.848H1059.68ZM1091.68 110.848V101.412H1096.42V110.848H1091.68ZM1082.1 122.281L1076.19 106.596L1080.62 104.938L1088.93 126.997H1072.72V122.281H1082.1ZM1061.04 136.935L1063.06 132.666L1079.05 140.146L1092.93 132.722L1095.17 136.878L1079.19 145.423L1061.04 136.935ZM1035.68 142.654H1040.42V159.273H1056.4V163.99H1035.68V142.654ZM1115.68 159.273V142.654H1120.42V163.99H1099.7V159.273H1115.68Z" fill="#22BEC5"/>
<path d="M170.251 229.237C170.341 228.237 170.387 227.224 170.387 226.2C170.387 208.275 156.338 193.743 139.007 193.743C121.677 193.743 107.628 208.275 107.628 226.2C107.628 226.321 107.628 226.443 107.63 226.565C102.599 219.992 94.8484 215.78 86.1538 215.78C70.9905 215.78 58.6982 228.591 58.6982 244.394C58.6982 253.283 62.5871 261.225 68.6884 266.473C71.6694 270.148 76.2129 272.513 81.3124 272.565C82.884 272.856 84.5019 273.008 86.1538 273.008C87.8042 273.008 89.4205 272.856 90.9906 272.565H194.288C196.654 272.565 198.904 272.068 200.937 271.171C212.784 267.998 221.538 256.792 221.538 243.456C221.538 227.652 209.246 214.841 194.083 214.841C183.885 214.841 174.986 220.636 170.251 229.237Z" fill="white"/>
</svg>
